<?xml version="1.0" encoding="utf-8"?>
<!-- Generator: Adobe Illustrator 27.0.1, SVG Export Plug-In . SVG Version: 6.00 Build 0)  -->
<svg version="1.1" id="Layer_1" xmlns="http://www.w3.org/2000/svg" xmlns:xlink="http://www.w3.org/1999/xlink" x="0px" y="0px"
	 viewBox="0 0 17 20" style="enable-background:new 0 0 17 20;" xml:space="preserve">
<style type="text/css">
	.st0{fill:#FFFFFF;}
</style>
<path class="st0" d="M15.4,0c0.2,0,0.4,0,0.6,0.1c0.3,0.1,0.5,0.3,0.7,0.5s0.3,0.5,0.3,0.8v17c0,0.3-0.1,0.6-0.3,0.8
	c-0.2,0.2-0.4,0.4-0.7,0.5C15.8,20,15.6,20,15.4,20c-0.4,0-0.8-0.1-1.1-0.4L8.5,14l-5.8,5.6C2.3,19.9,1.9,20,1.5,20
	c-0.2,0-0.4,0-0.6-0.1c-0.3-0.1-0.5-0.3-0.7-0.5C0.1,19.1,0,18.8,0,18.5v-17c0-0.3,0.1-0.6,0.3-0.8C0.4,0.4,0.7,0.2,1,0.1
	C1.1,0,1.3,0,1.5,0H15.4z"/>
</svg>
