<?xml version="1.0" encoding="utf-8"?>
<!-- Generator: Adobe Illustrator 27.0.1, SVG Export Plug-In . SVG Version: 6.00 Build 0)  -->
<svg version="1.1" id="Layer_1" xmlns="http://www.w3.org/2000/svg" xmlns:xlink="http://www.w3.org/1999/xlink" x="0px" y="0px"
	 viewBox="0 0 20 20" style="enable-background:new 0 0 20 20;" xml:space="preserve">
<style type="text/css">
	.st0{fill:#FFFFFF;}
</style>
<path class="st0" d="M17,0H3C1.4,0,0,1.4,0,3V17c0,1.7,1.4,3,3,3c0,0,0,0,0,0H17c1.7,0,3-1.4,3-3c0,0,0,0,0,0V3C20,1.4,18.6,0,17,0
	C17,0,17,0,17,0z M4,9H2V7h2V9z M2,11h2v2H2V11z M18,9h-2V7h2V9z M16,11h2v2h-2V11z M18,2.7V4h-2V2h1.3C17.7,2,18,2.3,18,2.7z
	 M2.7,2H4v2H2V2.7C2,2.3,2.3,2,2.7,2z M2,17.3V16h2v2H2.7C2.3,18,2,17.7,2,17.3z M18,17.3c0,0.4-0.3,0.7-0.7,0.7H16v-2h2V17.3z"/>
</svg>
