<?xml version="1.0" encoding="utf-8"?>
<!-- Generator: Adobe Illustrator 27.0.1, SVG Export Plug-In . SVG Version: 6.00 Build 0)  -->
<svg version="1.1" id="Layer_1" xmlns="http://www.w3.org/2000/svg" xmlns:xlink="http://www.w3.org/1999/xlink" x="0px" y="0px"
	 viewBox="0 0 20 20" style="enable-background:new 0 0 20 20;" xml:space="preserve">
<style type="text/css">
	.st0{fill:#FFFFFF;}
</style>
<path class="st0" d="M8,0H1C0.4,0,0,0.4,0,1v7c0,0.6,0.4,1,1,1h7c0.6,0,1-0.4,1-1V1C9,0.4,8.6,0,8,0z M8,11H1c-0.6,0-1,0.4-1,1v7
	c0,0.6,0.4,1,1,1h7c0.6,0,1-0.4,1-1v-7C9,11.4,8.6,11,8,11z M19,0h-7c-0.6,0-1,0.4-1,1v7c0,0.6,0.4,1,1,1h7c0.6,0,1-0.4,1-1V1
	C20,0.4,19.6,0,19,0z M19,11h-7c-0.6,0-1,0.4-1,1v7c0,0.6,0.4,1,1,1h7c0.6,0,1-0.4,1-1v-7C20,11.4,19.6,11,19,11z"/>
</svg>
